{"title":"Charlie's Angels (2000) 720p BRRip HEVC x265 [Dual-Audio][Englis","uid":12052414,"size":1162905279,"categoryP":"video","categoryS":"movies","magnet":"?xt=urn:btih:37f60710e0a05fc502d2117d244a709de80312be&amp;dn=Charlie%27s+Angels+%282000%29+720p+BRRip+HEVC+x265+%5BDual-Audio%5D%5BEnglis&amp;tr=udp%3A%2F%2Ftracker.openbittorrent.com%3A80&amp;tr=udp%3A%2F%2Fopen.demonii.com%3A1337&amp;tr=udp%3A%2F%2Ftracker.coppersurfer.tk%3A6969&amp;tr=udp%3A%2F%2Fexodus.desync.com%3A6969","seeders":1,"leechers":1,"uploader":"praneet_gupta777","files":3,"time":1435042282,"description":"[center]\n[b][size=7]Charlie's Angels (2000) 720p BRRip HEVC x265 [Dual-Audio][English 5.1+Hindi 2.0] [PKG][/size][/b]\n\n\n\n\n\n[img]http://s1.postimg.org/8bdolqgrj/Charlies_Angels_2000_Front_Cover_46668.jpg[/img]\n\n\n[img]http://s11.postimg.org/uzgydwdo3/Untitled.png[/img]\n\n\n\n\n[img]http://img9.uploadhouse.com/fileuploads/15981/15981250a2a3770f9f004bcdf00afac92833ebdb.png[/img]\n\n\n[quote]\n\n\nGeneral\nUnique ID                   : 229568146150648212654849709722398993060 (0xACB5377951242BBB90DA41978BC1AAA4)\nComplete name               : G:Charlie's Angels (2000) 720p BRRip HEVC x265 [Dual-Audio][English 5.1+Hindi 2.0] [PKG]Charlie's Angels (2000) 720p BRRip HEVC x265 [Dual-Audio][English 5.1+Hindi 2.0] [PKG].mkv\nFormat                      : Matroska\nFormat version              : Version 2\nFile size                   : 1.08 GiB\nDuration                    : 1h 38mn\nOverall bit rate            : 1 567 Kbps\nEncoded date                : UTC 2015-05-08 18:16:16\nWriting application         : mkvmerge v7.7.0 ('Six Voices') 32bit built on Feb 28 2015 23:23:00\nDURATION                    : 01:38:23.968000000\nNUMBER_OF_FRAMES            : 184499\nNUMBER_OF_BYTES             : 141695232\n\nVideo\nID                          : 1\nFormat                      : HEVC\nFormat/Info                 : High Efficiency Video Coding\nCodec ID                    : V_MPEGH/ISO/HEVC\nDuration                    : 1h 38mn\nBit rate                    : 1 184 Kbps\nWidth                       : 1 280 pixels\nHeight                      : 536 pixels\nDisplay aspect ratio        : 2.40:1\nFrame rate mode             : Constant\nFrame rate                  : 23.976 fps\nBits/(Pixel*Frame)          : 0.072\nStream size                 : 833 MiB (76%)\nDefault                     : Yes\nForced                      : No\n\nAudio #1\nID                          : 2\nFormat                      : AC-3\nFormat/Info                 : Audio Coding 3\nMode extension              : CM (complete main)\nFormat settings, Endianness : Big\nCodec ID                    : A_AC3\nDuration                    : 1h 38mn\nBit rate mode               : Constant\nBit rate                    : 160 Kbps\nChannel(s)                  : 2 channels\nChannel positions           : Front: L R\nSampling rate               : 48.0 KHz\nBit depth                   : 16 bits\nCompression mode            : Lossy\nStream size                 : 113 MiB (10%)\nLanguage                    : Hindi\nDefault                     : Yes\nForced                      : No\n\nAudio #2\nID                          : 3\nFormat                      : AC-3\nFormat/Info                 : Audio Coding 3\nMode extension              : CM (complete main)\nFormat settings, Endianness : Big\nCodec ID                    : A_AC3\nDuration                    : 1h 38mn\nBit rate mode               : Constant\nBit rate                    : 192 Kbps\nChannel(s)                  : 6 channels\nChannel positions           : Front: L C R, Side: L R, LFE\nSampling rate               : 48.0 KHz\nBit depth                   : 16 bits\nCompression mode            : Lossy\nStream size                 : 135 MiB (12%)\nLanguage                    : English\nDefault                     : No\nForced                      : No\n\n\n[color=navy][size=6][b]SAMPLE WITHIN TORRENT[/b][/size][/color]\n\n\n\n\n\n[img]http://icons.iconarchive.com/icons/tribalmarkings/colorflow/256/screenshots-icon.png[/img]\n\n\n\n\n[img]http://s1.postimg.org/vyen9um3j/vlcsnap_2015_05_29_21h44m44s149.png[/img]\n\n\n[img]http://s1.postimg.org/4xw97j8f3/vlcsnap_2015_05_29_21h49m55s199.png[/img]\n\n\n[img]http://s1.postimg.org/56yfb7alb/vlcsnap_2015_05_29_21h50m05s33.png[/img]\n\n\n[img]http://s1.postimg.org/jnlops02n/vlcsnap_2015_05_29_21h50m12s117.png[/img]\n\n\n[img]http://s1.postimg.org/qyh71wggv/vlcsnap_2015_05_29_21h50m59s64.png[/img]\n\n\n[img]http://s1.postimg.org/mgew9t0f3/vlcsnap_2015_05_29_21h55m24s149.png[/img]\n\n\n[img]http://s1.postimg.org/4u2fra2xr/Charlie_s_Angels_2000_720p_BRRip_HEVC_x265_Du.jpg[/img]\n\n[b]Use a reputed media player that can play H.265 (HEVC : High Efficiency Video Coding) Video support.\nMedia Player Classic - Home Cinema and MPC-BE are recommended!.. VLC is OKay, but MPC variants are preferred.\nVLC and players like latest GOM, KMP/PotP with LAV can play HEVC.\n\nAnd also use latest K-Lite Codec Pack.\n\nIn Mobile, Android, Tabs, use a media player like VLC Player, MX Player... that can play H.265 :]\nFor more info, read the How_to_Play_ file inside the torrent.\n\n\nBe aware that all HEVC rips will not play on any stand-alone device. You can only watch this on a computer or on devices which have HEVC support.\nBe sure that you have the latest versions of VLC or Media Player Classic or SMPlayer. Earlier versions may not work[/b]\n\n\n\n[/center]","torrent":{"xt":"urn:btih:37f60710e0a05fc502d2117d244a709de80312be","amp;dn":"Charlie%27s+Angels+%282000%29+720p+BRRip+HEVC+x265+%5BDual-Audio%5D%5BEnglis","amp;tr":["udp%3A%2F%2Ftracker.openbittorrent.com%3A80","udp%3A%2F%2Fopen.demonii.com%3A1337","udp%3A%2F%2Ftracker.coppersurfer.tk%3A6969","udp%3A%2F%2Fexodus.desync.com%3A6969"],"infoHash":"37f60710e0a05fc502d2117d244a709de80312be","infoHashBuffer":{"type":"Buffer","data":[55,246,7,16,224,160,95,197,2,210,17,125,36,74,112,157,232,3,18,190]},"announce":[],"urlList":[]}}